<svg width="56" height="56" viewBox="0 0 56 56" fill="none" xmlns="http://www.w3.org/2000/svg">
<path d="M34.6346 12.1762C34.1313 11.0977 34.0355 10.0432 34.4908 9.01265C34.7784 8.34159 35.2577 7.81434 35.9048 7.45484C37.1271 6.73586 38.7328 6.87966 39.8113 7.79037C41.0815 8.86885 41.3212 10.2349 40.5543 12.32C40.9617 12.4158 41.3452 12.4877 41.7526 12.5596C48.559 14.0695 53.7117 19.39 54.886 26.2204C55.4852 29.6715 55.0298 33.0028 53.5679 36.1903C53.3762 36.5977 53.1605 36.7894 52.6812 36.7655C50.5482 36.7415 48.4391 36.7415 46.3062 36.7415C46.1384 36.7415 45.9946 36.7415 45.707 36.7415C48.2234 34.1052 49.3259 31.0615 48.8466 27.5625C48.4631 24.7824 47.145 22.5056 44.9641 20.7321C40.746 17.3049 34.8264 17.5446 30.7521 21.3552C27.0853 24.7584 25.7192 31.6607 30.6323 36.7415C30.4405 36.7415 30.2728 36.7655 30.129 36.7655C21.8367 36.7655 13.5683 36.7655 5.27605 36.7655C3.71824 36.7655 2.51994 35.9746 2.08854 34.6325C1.44146 32.6193 2.95133 30.5822 5.13225 30.5822C9.85359 30.5822 14.551 30.5822 19.2723 30.5822C19.5839 30.5822 19.9194 30.5822 20.207 30.4863C20.902 30.2946 21.3574 29.5756 21.2615 28.8806C21.1656 28.1616 20.5904 27.6104 19.8475 27.5625C19.512 27.5385 19.1764 27.5625 18.8409 27.5625C14.2634 27.5625 9.68582 27.5625 5.10828 27.5625C3.38272 27.5625 2.01665 26.3402 1.94475 24.7105C1.84888 22.961 3.02323 21.6189 4.77276 21.4271C5.08432 21.4032 5.39588 21.3792 5.70744 21.3792C11.1717 21.3792 16.636 21.3792 22.0763 21.3792C23.2507 21.3792 23.9936 20.3966 23.6102 19.3421C23.3705 18.7189 22.8193 18.3355 22.0524 18.3355C20.5185 18.3355 18.9607 18.3355 17.4269 18.3355C15.7972 18.3355 14.4791 17.233 14.2873 15.7232C14.0956 14.0455 15.0782 12.6555 16.7319 12.272C16.9955 12.2001 17.2831 12.2001 17.5707 12.2001C23.011 12.2001 28.4513 12.2001 33.8917 12.2001C34.1313 12.1762 34.3231 12.1762 34.6346 12.1762Z" fill="#FF5634"/>
<path d="M51.2465 39.8099C50.8391 40.2652 50.5275 40.6247 50.192 40.9602C46.8128 44.2915 42.7385 45.9692 37.9693 45.9692C31.1868 45.9692 24.4044 45.9692 17.598 45.9692C15.8724 45.9692 14.7221 45.1303 14.3386 43.6205C13.8593 41.7511 15.2254 39.9057 17.1427 39.8099C17.3583 39.8099 17.574 39.7859 17.7897 39.7859C28.6944 39.7859 39.599 39.7859 50.5036 39.7859C50.7193 39.8099 50.911 39.8099 51.2465 39.8099Z" fill="#FF5634"/>
</svg>
